<svg width="40" height="40" viewBox="0 0 40 40" fill="none" xmlns="http://www.w3.org/2000/svg">
<path d="M34.0466 14.9554C33.4287 14.3354 32.694 13.8442 31.8849 13.51C31.0759 13.1759 30.2086 13.0055 29.3333 13.0087H7.73329L13.4666 7.27541C13.7163 7.02469 13.8561 6.68507 13.8554 6.33125C13.8546 5.97743 13.7133 5.6384 13.4626 5.38874C13.2119 5.13909 12.8723 4.99925 12.5185 5C12.1646 5.00075 11.8256 5.14203 11.576 5.39274L4.97596 11.9914C4.35105 12.6165 4 13.4642 4 14.3481C4 15.232 4.35105 16.0797 4.97596 16.7047L11.576 23.3061C11.6997 23.4302 11.8468 23.5288 12.0087 23.5961C12.1705 23.6634 12.3441 23.6982 12.5194 23.6984C12.6947 23.6987 12.8684 23.6644 13.0304 23.5975C13.1925 23.5307 13.3398 23.4325 13.464 23.3088C13.5881 23.185 13.6866 23.0379 13.754 22.876C13.8213 22.7142 13.8561 22.5406 13.8563 22.3653C13.8566 22.19 13.8223 22.0163 13.7554 21.8543C13.6885 21.6922 13.5904 21.5449 13.4666 21.4207L7.71729 15.6754H29.3333C30.3942 15.6754 31.4116 16.0968 32.1617 16.847C32.9119 17.5971 33.3333 18.6145 33.3333 19.6754V29.0088C33.3333 30.0696 32.9119 31.087 32.1617 31.8372C31.4116 32.5873 30.3942 33.0088 29.3333 33.0088H10.6666C10.313 33.0088 9.97386 33.1492 9.72381 33.3993C9.47377 33.6493 9.33329 33.9885 9.33329 34.3421C9.33329 34.6957 9.47377 35.0348 9.72381 35.2849C9.97386 35.5349 10.313 35.6754 10.6666 35.6754H29.3333C31.1008 35.6733 32.7952 34.9702 34.045 33.7205C35.2948 32.4707 35.9978 30.7762 36 29.0088V19.6754C36.0029 18.7986 35.8318 17.9298 35.4965 17.1196C35.1612 16.3094 34.6684 15.5738 34.0466 14.9554Z" fill="white"/>
</svg>
