<svg width="41" height="40" viewBox="0 0 41 40" fill="none" xmlns="http://www.w3.org/2000/svg">
<g clip-path="url(#clip0_642_794)">
<path d="M38.5478 15.2869L32.0828 8.82186C31.7685 8.51826 31.3474 8.35027 30.9105 8.35407C30.4735 8.35786 30.0554 8.53315 29.7464 8.84216C29.4374 9.15117 29.2621 9.56919 29.2583 10.0062C29.2545 10.4432 29.4225 10.8642 29.7261 11.1785L36.1911 17.6435C36.3832 17.8394 36.5511 18.0576 36.6911 18.2935C36.6661 18.2935 36.6461 18.2802 36.6211 18.2802L10.4811 18.3335C10.0391 18.3335 9.61517 18.5091 9.30261 18.8217C8.99005 19.1342 8.81445 19.5582 8.81445 20.0002C8.81445 20.4422 8.99005 20.8661 9.30261 21.1787C9.61517 21.4913 10.0391 21.6669 10.4811 21.6669L36.6111 21.6135C36.6578 21.6135 36.6961 21.5902 36.7411 21.5869C36.5933 21.8688 36.4058 22.1281 36.1845 22.3569L29.7195 28.8219C29.5603 28.9756 29.4333 29.1595 29.346 29.3629C29.2586 29.5662 29.2126 29.7849 29.2107 30.0062C29.2088 30.2275 29.2509 30.447 29.3348 30.6518C29.4186 30.8566 29.5423 31.0427 29.6988 31.1992C29.8553 31.3557 30.0414 31.4794 30.2462 31.5632C30.451 31.647 30.6705 31.6892 30.8918 31.6873C31.1131 31.6854 31.3318 31.6394 31.5351 31.552C31.7385 31.4647 31.9224 31.3377 32.0761 31.1785L38.5411 24.7135C39.7909 23.4633 40.493 21.768 40.493 20.0002C40.493 18.2324 39.7909 16.537 38.5411 15.2869H38.5478Z" fill="white"/>
<path d="M12.1667 36.6667H8.83333C7.50725 36.6667 6.23548 36.1399 5.2978 35.2022C4.36012 34.2645 3.83333 32.9927 3.83333 31.6667V8.33333C3.83333 7.00725 4.36012 5.73548 5.2978 4.7978C6.23548 3.86012 7.50725 3.33333 8.83333 3.33333H12.1667C12.6087 3.33333 13.0326 3.15774 13.3452 2.84518C13.6577 2.53262 13.8333 2.10869 13.8333 1.66667C13.8333 1.22464 13.6577 0.800716 13.3452 0.488155C13.0326 0.175595 12.6087 0 12.1667 0L8.83333 0C6.62401 0.00264643 4.50593 0.88147 2.9437 2.4437C1.38147 4.00593 0.502646 6.12401 0.5 8.33333L0.5 31.6667C0.502646 33.876 1.38147 35.9941 2.9437 37.5563C4.50593 39.1185 6.62401 39.9974 8.83333 40H12.1667C12.6087 40 13.0326 39.8244 13.3452 39.5118C13.6577 39.1993 13.8333 38.7754 13.8333 38.3333C13.8333 37.8913 13.6577 37.4674 13.3452 37.1548C13.0326 36.8423 12.6087 36.6667 12.1667 36.6667Z" fill="white"/>
</g>
<defs>
<clipPath id="clip0_642_794">
<rect width="40" height="40" fill="white" transform="translate(0.5)"/>
</clipPath>
</defs>
</svg>
