<svg width="25" height="26" viewBox="0 0 25 26" fill="none" xmlns="http://www.w3.org/2000/svg">
<g clip-path="url(#clip0_292:5400)">
<path d="M24.6908 2.29004L5.40601 21.5659C5.82293 21.769 6.28021 21.8758 6.74398 21.8782H10.0468C10.3231 21.8775 10.5882 21.9873 10.783 22.1832L12.5729 23.9718C13.5435 24.9489 14.8637 25.4989 16.2411 25.5C16.8098 25.4995 17.3746 25.4063 17.9133 25.2241C19.7705 24.6154 21.1213 23.0057 21.3984 21.0714L24.9167 4.36276C25.0847 3.66655 25.0048 2.93364 24.6908 2.29004Z" fill="#F4F7FB"/>
<path d="M21.1722 0.580627L4.50092 4.09208C1.65238 4.48334 -0.339583 7.1093 0.0517603 9.95728C0.206336 11.082 0.724434 12.1254 1.52713 12.9284L3.316 14.7169C3.51153 14.9123 3.6213 15.1775 3.6211 15.454V18.7561C3.62349 19.2198 3.73029 19.677 3.93347 20.0938L23.2151 0.812811C22.5815 0.501476 21.8595 0.419445 21.1722 0.580627Z" fill="#F4F7FB"/>
</g>
<defs>
<clipPath id="clip0_292:5400">
<rect width="25" height="25" fill="white" transform="translate(0 0.5)"/>
</clipPath>
</defs>
</svg>
