<svg width="32" height="32" viewBox="0 0 32 32" fill="none" xmlns="http://www.w3.org/2000/svg">
<path d="M27.707 16L30.8535 12.8538C31.0488 12.6585 31.0488 12.3418 30.8535 12.1465C30.6582 11.9512 30.3415 11.9512 30.1462 12.1465L27 15.293L23.8538 12.1465C23.6585 11.9512 23.3418 11.9512 23.1465 12.1465C22.9512 12.3418 22.9512 12.6585 23.1465 12.8538L26.293 16L23.1465 19.1462C22.9512 19.3415 22.9512 19.6582 23.1465 19.8535C23.3418 20.0488 23.6585 20.0488 23.8538 19.8535L27 16.707L30.1462 19.8535C30.3415 20.0488 30.6582 20.0488 30.8535 19.8535C31.0488 19.6582 31.0488 19.3415 30.8535 19.1462L27.707 16Z" fill="black" stroke="black"/>
<path d="M18.4267 0.266683C14.3724 1.02837 10.7662 3.31982 8.35467 6.66668H6.66667C4.89942 6.6695 3.20537 7.37279 1.95574 8.62242C0.706105 9.87205 0.00282083 11.5661 0 13.3333L0 18.6667C0.00282083 20.4339 0.706105 22.128 1.95574 23.3776C3.20537 24.6272 4.89942 25.3305 6.66667 25.3333H8.35467C10.7667 28.6797 14.3727 30.971 18.4267 31.7333C18.5062 31.7489 18.587 31.7565 18.668 31.756C19.0216 31.756 19.3608 31.6155 19.6108 31.3655C19.8609 31.1154 20.0013 30.7763 20.0013 30.4227V1.58135C20.0018 1.38553 19.9592 1.192 19.8764 1.01453C19.7937 0.837049 19.6728 0.679979 19.5225 0.55448C19.3722 0.42898 19.1961 0.338131 19.0067 0.288391C18.8173 0.23865 18.6193 0.231238 18.4267 0.266683ZM17.3333 28.7133C14.3925 27.7759 11.8638 25.855 10.172 23.2733C10.0511 23.0874 9.88576 22.9345 9.69089 22.8286C9.49602 22.7226 9.2778 22.667 9.056 22.6667H6.66667C5.6058 22.6667 4.58839 22.2453 3.83824 21.4951C3.08809 20.745 2.66667 19.7275 2.66667 18.6667V13.3333C2.66667 12.2725 3.08809 11.2551 3.83824 10.5049C4.58839 9.75478 5.6058 9.33335 6.66667 9.33335H9.06667C9.28822 9.33332 9.50628 9.27808 9.70113 9.17263C9.89598 9.06717 10.0615 8.91482 10.1827 8.72935C11.8711 6.14833 14.3958 4.22661 17.3333 3.28668V28.7133Z" fill="black"/>
<!-- <path d="M5.70696 4.99999L8.85351 1.85379C9.04883 1.65847 9.04883 1.34179 8.85351 1.14649C8.65819 0.95117 8.34151 0.95117 8.14621 1.14649L4.99999 4.29302L1.85379 1.14649C1.65847 0.95117 1.34179 0.95117 1.14649 1.14649C0.951186 1.34181 0.95117 1.65849 1.14649 1.85379L4.29302 4.99999L1.14649 8.14621C0.95117 8.34153 0.95117 8.6582 1.14649 8.85351C1.34181 9.04881 1.65849 9.04883 1.85379 8.85351L4.99999 5.70696L8.14619 8.85351C8.34151 9.04883 8.65819 9.04883 8.85349 8.85351C9.04881 8.65819 9.04881 8.34151 8.85349 8.14621L5.70696 4.99999Z" fill="black" stroke="black"/><path d="M5.70696 4.99999L8.85351 1.85379C9.04883 1.65847 9.04883 1.34179 8.85351 1.14649C8.65819 0.95117 8.34151 0.95117 8.14621 1.14649L4.99999 4.29302L1.85379 1.14649C1.65847 0.95117 1.34179 0.95117 1.14649 1.14649C0.951186 1.34181 0.95117 1.65849 1.14649 1.85379L4.29302 4.99999L1.14649 8.14621C0.95117 8.34153 0.95117 8.6582 1.14649 8.85351C1.34181 9.04881 1.65849 9.04883 1.85379 8.85351L4.99999 5.70696L8.14619 8.85351C8.34151 9.04883 8.65819 9.04883 8.85349 8.85351C9.04881 8.65819 9.04881 8.34151 8.85349 8.14621L5.70696 4.99999Z" fill="black" stroke="black"/> -->
</svg>
