<svg width="28" height="28" viewBox="0 0 28 28" fill="none" xmlns="http://www.w3.org/2000/svg">
<path d="M24.1117 12.4131L20.7869 9.08827C20.6252 8.93213 20.4087 8.84574 20.184 8.84769C19.9592 8.84964 19.7442 8.93979 19.5853 9.09871C19.4264 9.25763 19.3363 9.47261 19.3343 9.69735C19.3324 9.92209 19.4187 10.1386 19.5749 10.3003L22.8997 13.6251C22.9985 13.7259 23.0849 13.8381 23.1569 13.9594C23.144 13.9594 23.1337 13.9526 23.1209 13.9526L9.67746 13.98C9.45013 13.98 9.23211 14.0703 9.07136 14.231C8.91062 14.3918 8.82031 14.6098 8.82031 14.8371C8.82031 15.0645 8.91062 15.2825 9.07136 15.4432C9.23211 15.604 9.45013 15.6943 9.67746 15.6943L23.1157 15.6668C23.1397 15.6668 23.1595 15.6548 23.1826 15.6531C23.1066 15.7981 23.0102 15.9315 22.8963 16.0491L19.5715 19.374C19.4896 19.453 19.4243 19.5476 19.3794 19.6522C19.3344 19.7568 19.3108 19.8693 19.3098 19.9831C19.3088 20.0969 19.3305 20.2097 19.3736 20.3151C19.4167 20.4204 19.4804 20.5161 19.5608 20.5966C19.6413 20.6771 19.737 20.7407 19.8424 20.7838C19.9477 20.8269 20.0606 20.8486 20.1744 20.8476C20.2882 20.8466 20.4007 20.823 20.5052 20.7781C20.6098 20.7331 20.7044 20.6678 20.7835 20.586L24.1083 17.2611C24.7511 16.6182 25.1122 15.7463 25.1122 14.8371C25.1122 13.928 24.7511 13.0561 24.1083 12.4131H24.1117Z" fill="white"/>
<path d="M9.125 23.25H7.375C6.67881 23.25 6.01113 22.9734 5.51884 22.4812C5.02656 21.9889 4.75 21.3212 4.75 20.625V8.375C4.75 7.67881 5.02656 7.01113 5.51884 6.51884C6.01113 6.02656 6.67881 5.75 7.375 5.75H9.125C9.35706 5.75 9.57962 5.65781 9.74372 5.49372C9.90781 5.32962 10 5.10706 10 4.875C10 4.64294 9.90781 4.42038 9.74372 4.25628C9.57962 4.09219 9.35706 4 9.125 4H7.375C6.2151 4.00139 5.10311 4.46277 4.28294 5.28294C3.46277 6.10311 3.00139 7.2151 3 8.375L3 20.625C3.00139 21.7849 3.46277 22.8969 4.28294 23.7171C5.10311 24.5372 6.2151 24.9986 7.375 25H9.125C9.35706 25 9.57962 24.9078 9.74372 24.7437C9.90781 24.5796 10 24.3571 10 24.125C10 23.8929 9.90781 23.6704 9.74372 23.5063C9.57962 23.3422 9.35706 23.25 9.125 23.25Z" fill="white"/>
</svg>
