<svg width="32" height="32" viewBox="0 0 32 32" fill="none" xmlns="http://www.w3.org/2000/svg">
<g clip-path="url(#clip0_300:5355)">
<path d="M21.3346 8C21.6883 8 22.0274 8.14048 22.2774 8.39052C22.5275 8.64057 22.668 8.97971 22.668 9.33333C22.668 9.68696 22.5275 10.0261 22.2774 10.2761C22.0274 10.5262 21.6883 10.6667 21.3346 10.6667H10.668C10.3143 10.6667 9.97521 10.5262 9.72516 10.2761C9.47511 10.0261 9.33464 9.68696 9.33464 9.33333C9.33464 8.97971 9.47511 8.64057 9.72516 8.39052C9.97521 8.14048 10.3143 8 10.668 8H21.3346ZM31.6106 31.6093C31.3606 31.8593 31.0215 31.9997 30.668 31.9997C30.3144 31.9997 29.9753 31.8593 29.7253 31.6093L26.516 28.4C25.5655 29.0066 24.4621 29.3303 23.3346 29.3333C22.1479 29.3333 20.9879 28.9814 20.0012 28.3222C19.0145 27.6629 18.2455 26.7258 17.7914 25.6294C17.3372 24.5331 17.2184 23.3267 17.4499 22.1628C17.6814 20.9989 18.2529 19.9298 19.092 19.0907C19.9311 18.2516 21.0002 17.6801 22.1641 17.4486C23.328 17.2171 24.5344 17.3359 25.6307 17.7901C26.7271 18.2442 27.6642 19.0132 28.3235 19.9999C28.9827 20.9866 29.3346 22.1466 29.3346 23.3333C29.3316 24.4608 29.0079 25.5642 28.4013 26.5147L31.6106 29.724C31.8606 29.974 32.001 30.3131 32.001 30.6667C32.001 31.0202 31.8606 31.3593 31.6106 31.6093ZM23.3346 26.6667C23.9939 26.6667 24.6384 26.4712 25.1865 26.1049C25.7347 25.7386 26.1619 25.218 26.4142 24.6089C26.6665 23.9999 26.7325 23.3296 26.6039 22.683C26.4753 22.0364 26.1578 21.4425 25.6917 20.9763C25.2255 20.5101 24.6315 20.1927 23.9849 20.064C23.3383 19.9354 22.6681 20.0014 22.059 20.2537C21.4499 20.506 20.9293 20.9333 20.5631 21.4814C20.1968 22.0296 20.0013 22.6741 20.0013 23.3333C20.0013 24.2174 20.3525 25.0652 20.9776 25.6904C21.6027 26.3155 22.4506 26.6667 23.3346 26.6667ZM17.3346 29.3333H9.33464C8.27377 29.3333 7.25635 28.9119 6.50621 28.1618C5.75606 27.4116 5.33464 26.3942 5.33464 25.3333V6.66667C5.33464 5.6058 5.75606 4.58839 6.50621 3.83824C7.25635 3.08809 8.27377 2.66667 9.33464 2.66667H25.3346C25.6883 2.66667 26.0274 2.80714 26.2774 3.05719C26.5275 3.30724 26.668 3.64638 26.668 4V14.6667C26.668 15.0203 26.8084 15.3594 27.0585 15.6095C27.3085 15.8595 27.6477 16 28.0013 16C28.3549 16 28.6941 15.8595 28.9441 15.6095C29.1942 15.3594 29.3346 15.0203 29.3346 14.6667V4C29.3346 2.93913 28.9132 1.92172 28.1631 1.17157C27.4129 0.421427 26.3955 0 25.3346 0L9.33464 0C7.56718 0.00211714 5.87271 0.705176 4.62293 1.95496C3.37314 3.20474 2.67009 4.89921 2.66797 6.66667V25.3333C2.67009 27.1008 3.37314 28.7953 4.62293 30.045C5.87271 31.2948 7.56718 31.9979 9.33464 32H17.3346C17.6883 32 18.0274 31.8595 18.2774 31.6095C18.5275 31.3594 18.668 31.0203 18.668 30.6667C18.668 30.313 18.5275 29.9739 18.2774 29.7239C18.0274 29.4738 17.6883 29.3333 17.3346 29.3333Z" fill="white"/>
</g>
<defs>
<clipPath id="clip0_300:5355">
<rect width="32" height="32" fill="white"/>
</clipPath>
</defs>
</svg>
