<svg width="32" height="32" viewBox="0 0 32 32" fill="none" xmlns="http://www.w3.org/2000/svg">
<path d="M31.6009 2.29126L6.91626 26.9644C7.44992 27.2244 8.03524 27.3611 8.62887 27.3641H12.8565C13.2101 27.3632 13.5494 27.5038 13.7988 27.7546L16.0898 30.0439C17.3323 31.2946 19.0221 31.9986 20.7852 32C21.5132 31.9993 22.2361 31.88 22.9257 31.6469C25.3028 30.8677 27.0318 28.8074 27.3865 26.3314L31.89 4.94434C32.105 4.0532 32.0028 3.11507 31.6009 2.29126Z" fill="#F4F7FB"/>
<path d="M27.097 0.103203L5.75774 4.59786C2.1116 5.09868 -0.438104 8.4599 0.0628157 12.1053C0.260672 13.5449 0.923838 14.8805 1.95129 15.9083L4.24104 18.1976C4.49132 18.4478 4.63182 18.7872 4.63157 19.1411V23.3678C4.63463 23.9613 4.77133 24.5466 5.03141 25.0801L29.7119 0.400398C28.9009 0.00188913 27.9768 -0.10311 27.097 0.103203Z" fill="#F4F7FB"/>
</svg>
