<svg width="28" height="28" viewBox="0 0 28 28" fill="white" xmlns="http://www.w3.org/2000/svg">
<g clip-path="url(#clip0_416:1203)">
<path d="M14.0007 9.3335C13.0777 9.3335 12.1754 9.60719 11.408 10.12C10.6406 10.6328 10.0424 11.3616 9.68922 12.2143C9.33601 13.067 9.24359 14.0053 9.42366 14.9106C9.60372 15.8158 10.0482 16.6474 10.7008 17.3C11.3535 17.9526 12.185 18.3971 13.0902 18.5772C13.9955 18.7572 14.9338 18.6648 15.7865 18.3116C16.6392 17.9584 17.3681 17.3603 17.8808 16.5928C18.3936 15.8254 18.6673 14.9231 18.6673 14.0002C18.6673 12.7625 18.1757 11.5755 17.3005 10.7003C16.4253 9.82516 15.2383 9.3335 14.0007 9.3335ZM14.0007 16.3335C13.5392 16.3335 13.088 16.1966 12.7043 15.9403C12.3206 15.6839 12.0215 15.3195 11.8449 14.8931C11.6683 14.4667 11.6221 13.9976 11.7122 13.545C11.8022 13.0923 12.0244 12.6766 12.3507 12.3502C12.6771 12.0239 13.0928 11.8017 13.5454 11.7117C13.9981 11.6216 14.4672 11.6678 14.8936 11.8444C15.3199 12.021 15.6844 12.3201 15.9407 12.7038C16.1971 13.0875 16.334 13.5387 16.334 14.0002C16.334 14.619 16.0882 15.2125 15.6506 15.6501C15.213 16.0877 14.6195 16.3335 14.0007 16.3335Z" fill="white"/>
<path d="M24.8415 16.2167L24.3235 15.918C24.5567 14.6492 24.5567 13.3485 24.3235 12.0797L24.8415 11.781C25.2398 11.5512 25.589 11.2452 25.8691 10.8804C26.1491 10.5156 26.3546 10.0993 26.4738 9.65512C26.593 9.21095 26.6235 8.74765 26.5636 8.29168C26.5037 7.83572 26.3546 7.39601 26.1248 6.99767C25.895 6.59932 25.589 6.25015 25.2242 5.97007C24.8594 5.69 24.4431 5.48451 23.9989 5.36534C23.5547 5.24617 23.0914 5.21566 22.6355 5.27554C22.1795 5.33542 21.7398 5.48452 21.3415 5.71433L20.8223 6.01417C19.8418 5.1764 18.7149 4.52696 17.4985 4.0985V3.5C17.4985 2.57174 17.1297 1.6815 16.4733 1.02513C15.817 0.368749 14.9267 0 13.9985 0C13.0702 0 12.18 0.368749 11.5236 1.02513C10.8672 1.6815 10.4985 2.57174 10.4985 3.5V4.0985C9.28208 4.52849 8.15562 5.17953 7.1758 6.01883L6.6543 5.71667C5.84981 5.25254 4.89389 5.127 3.99684 5.36767C3.09979 5.60834 2.33509 6.19551 1.87096 7C1.40683 7.80449 1.2813 8.7604 1.52197 9.65745C1.76264 10.5545 2.34981 11.3192 3.1543 11.7833L3.6723 12.082C3.43909 13.3508 3.43909 14.6515 3.6723 15.9203L3.1543 16.219C2.34981 16.6831 1.76264 17.4478 1.52197 18.3449C1.2813 19.2419 1.40683 20.1978 1.87096 21.0023C2.33509 21.8068 3.09979 22.394 3.99684 22.6347C4.89389 22.8753 5.84981 22.7498 6.6543 22.2857L7.17346 21.9858C8.15436 22.8237 9.28161 23.4732 10.4985 23.9015V24.5C10.4985 25.4283 10.8672 26.3185 11.5236 26.9749C12.18 27.6313 13.0702 28 13.9985 28C14.9267 28 15.817 27.6313 16.4733 26.9749C17.1297 26.3185 17.4985 25.4283 17.4985 24.5V23.9015C18.7148 23.4715 19.8413 22.8205 20.8211 21.9812L21.3426 22.2822C22.1471 22.7463 23.103 22.8718 24.0001 22.6312C24.8971 22.3905 25.6618 21.8033 26.126 20.9988C26.5901 20.1943 26.7156 19.2384 26.475 18.3414C26.2343 17.4443 25.6471 16.6796 24.8426 16.2155L24.8415 16.2167ZM21.8688 11.8113C22.2639 13.2429 22.2639 14.7548 21.8688 16.1863C21.7998 16.4355 21.8155 16.7005 21.9135 16.9398C22.0115 17.179 22.1862 17.379 22.4101 17.5082L23.6748 18.2385C23.9429 18.3932 24.1386 18.6481 24.2188 18.9471C24.299 19.246 24.2571 19.5646 24.1024 19.8328C23.9477 20.1009 23.6928 20.2965 23.3938 20.3767C23.0948 20.4569 22.7762 20.415 22.5081 20.2603L21.2411 19.5277C21.017 19.3979 20.7561 19.3463 20.4994 19.3812C20.2428 19.416 20.005 19.5353 19.8236 19.7202C18.7852 20.7803 17.477 21.5366 16.0401 21.9077C15.7893 21.9721 15.5671 22.1182 15.4085 22.3229C15.2499 22.5276 15.1638 22.7792 15.164 23.0382V24.5C15.164 24.8094 15.041 25.1062 14.8223 25.325C14.6035 25.5438 14.3067 25.6667 13.9973 25.6667C13.6879 25.6667 13.3911 25.5438 13.1723 25.325C12.9535 25.1062 12.8306 24.8094 12.8306 24.5V23.0393C12.8308 22.7804 12.7447 22.5287 12.5861 22.3241C12.4275 22.1194 12.2053 21.9733 11.9545 21.9088C10.5175 21.5363 9.20968 20.7783 8.17213 19.7167C7.99074 19.5318 7.75299 19.4125 7.49635 19.3777C7.2397 19.3428 6.97875 19.3944 6.75463 19.5242L5.48996 20.2557C5.35723 20.3335 5.21042 20.3843 5.05798 20.4051C4.90553 20.426 4.75047 20.4164 4.60173 20.3771C4.45298 20.3378 4.31348 20.2694 4.19125 20.176C4.06903 20.0825 3.9665 19.9658 3.88957 19.8326C3.81264 19.6993 3.76282 19.5522 3.74299 19.3996C3.72316 19.247 3.73371 19.092 3.77402 18.9435C3.81433 18.795 3.88362 18.656 3.97788 18.5344C4.07215 18.4128 4.18954 18.311 4.3233 18.235L5.58796 17.5047C5.8119 17.3755 5.98658 17.1755 6.08457 16.9363C6.18255 16.697 6.19828 16.432 6.1293 16.1828C5.73421 14.7513 5.73421 13.2394 6.1293 11.8078C6.19704 11.5592 6.18055 11.2951 6.08241 11.0568C5.98427 10.8186 5.81 10.6195 5.5868 10.4907L4.32213 9.76033C4.05402 9.60562 3.85835 9.35074 3.77816 9.05176C3.69797 8.75278 3.73984 8.43419 3.89455 8.16608C4.04926 7.89797 4.30414 7.7023 4.60312 7.62211C4.9021 7.54192 5.22068 7.58379 5.4888 7.7385L6.7558 8.47117C6.97931 8.60127 7.23971 8.65341 7.49608 8.61941C7.75245 8.58541 7.99026 8.46719 8.17213 8.28333C9.21056 7.22323 10.5188 6.46686 11.9556 6.09583C12.2072 6.03116 12.43 5.88438 12.5887 5.67875C12.7474 5.47313 12.833 5.22042 12.8318 4.96067V3.5C12.8318 3.19058 12.9547 2.89383 13.1735 2.67504C13.3923 2.45625 13.689 2.33333 13.9985 2.33333C14.3079 2.33333 14.6046 2.45625 14.8234 2.67504C15.0422 2.89383 15.1651 3.19058 15.1651 3.5V4.96067C15.165 5.21962 15.251 5.47125 15.4097 5.67593C15.5683 5.8806 15.7905 6.02669 16.0413 6.09117C17.4786 6.46351 18.7869 7.22153 19.8248 8.28333C20.0062 8.46821 20.2439 8.58747 20.5006 8.62233C20.7572 8.65718 21.0182 8.60564 21.2423 8.47583L22.507 7.74433C22.6397 7.66652 22.7865 7.61573 22.939 7.59489C23.0914 7.57404 23.2465 7.58356 23.3952 7.62288C23.5439 7.66221 23.6835 7.73057 23.8057 7.82403C23.9279 7.91749 24.0304 8.03421 24.1074 8.16745C24.1843 8.3007 24.2341 8.44784 24.2539 8.60042C24.2738 8.753 24.2632 8.90799 24.2229 9.05647C24.1826 9.20496 24.1133 9.344 24.019 9.4656C23.9248 9.5872 23.8074 9.68895 23.6736 9.765L22.409 10.4953C22.1862 10.6245 22.0124 10.8237 21.9147 11.062C21.817 11.3002 21.8008 11.5641 21.8688 11.8125V11.8113Z" fill="white"/>
</g>
<defs>
<clipPath id="clip0_416:1203">
<rect width="28" height="28" fill="white"/>
</clipPath>
</defs>
</svg>
