<svg width="10" height="10" viewBox="0 0 10 10" fill="none" xmlns="http://www.w3.org/2000/svg">
<path d="M5.70696 4.99999L8.85351 1.85379C9.04883 1.65847 9.04883 1.34179 8.85351 1.14649C8.65819 0.95117 8.34151 0.95117 8.14621 1.14649L4.99999 4.29302L1.85379 1.14649C1.65847 0.95117 1.34179 0.95117 1.14649 1.14649C0.951186 1.34181 0.95117 1.65849 1.14649 1.85379L4.29302 4.99999L1.14649 8.14621C0.95117 8.34153 0.95117 8.6582 1.14649 8.85351C1.34181 9.04881 1.65849 9.04883 1.85379 8.85351L4.99999 5.70696L8.14619 8.85351C8.34151 9.04883 8.65819 9.04883 8.85349 8.85351C9.04881 8.65819 9.04881 8.34151 8.85349 8.14621L5.70696 4.99999Z" fill="black" stroke="black"/>
</svg>
