<svg width="11" height="11" viewBox="0 0 11 11" fill="none" xmlns="http://www.w3.org/2000/svg">
<g clip-path="url(#clip0_300:6583)">
<path d="M5.84826 0.511707C5.13391 0.461724 4.41716 0.565768 3.7465 0.816797C3.07585 1.06783 2.46694 1.45999 1.96098 1.96674C1.45502 2.47349 1.06381 3.08301 0.813824 3.75406C0.563841 4.4251 0.460916 5.14202 0.512013 5.85629C0.695763 8.50337 3.0341 10.5 5.95118 10.5H8.4166C8.96893 10.4994 9.49845 10.2797 9.88901 9.88912C10.2796 9.49856 10.4993 8.96904 10.4999 8.41671V5.64171C10.5155 4.35731 10.0446 3.11458 9.18173 2.16303C8.3189 1.21148 7.12805 0.621556 5.84826 0.511707ZM8.2916 4.54671L5.46118 7.34129C5.30499 7.49688 5.09352 7.58424 4.87305 7.58424C4.65259 7.58424 4.44112 7.49688 4.28493 7.34129L2.70826 5.79796C2.62925 5.7206 2.5842 5.61503 2.58303 5.50446C2.58186 5.39389 2.62466 5.28739 2.70201 5.20837C2.77937 5.12936 2.88494 5.08431 2.99551 5.08314C3.10608 5.08197 3.21258 5.12477 3.2916 5.20212L4.87201 6.74671L7.70785 3.95504C7.78782 3.88468 7.8917 3.84761 7.99815 3.85146C8.1046 3.85531 8.20553 3.89978 8.28021 3.97574C8.35489 4.0517 8.39764 4.15337 8.39968 4.25987C8.40172 4.36637 8.36289 4.46961 8.29118 4.54837L8.2916 4.54671Z" fill="#4E416D"/>
</g>
<defs>
<clipPath id="clip0_300:6583">
<rect width="10" height="10" fill="white" transform="translate(0.5 0.5)"/>
</clipPath>
</defs>
</svg>
